<?xml version="1.0" encoding="UTF-8" standalone="no"?>
<!-- Created with Inkscape (http://www.inkscape.org/) -->
<svg
   xmlns:dc="http://purl.org/dc/elements/1.1/"
   xmlns:cc="http://creativecommons.org/ns#"
   xmlns:rdf="http://www.w3.org/1999/02/22-rdf-syntax-ns#"
   xmlns:svg="http://www.w3.org/2000/svg"
   xmlns="http://www.w3.org/2000/svg"
   xmlns:sodipodi="http://sodipodi.sourceforge.net/DTD/sodipodi-0.dtd"
   xmlns:inkscape="http://www.inkscape.org/namespaces/inkscape"
   width="32px"
   height="32px"
   id="svg2383"
   sodipodi:version="0.32"
   inkscape:version="0.46"
   sodipodi:docname="destroy.svg"
   inkscape:output_extension="org.inkscape.output.svg.inkscape"
   inkscape:export-filename="/home/luis/NetBeansProjects/Sabre/Trunk/Game Plugin 2D/src/org/gcreator/events/images/create.png"
   inkscape:export-xdpi="90"
   inkscape:export-ydpi="90">
  <defs
     id="defs2385">
    <inkscape:perspective
       sodipodi:type="inkscape:persp3d"
       inkscape:vp_x="0 : 16 : 1"
       inkscape:vp_y="0 : 1000 : 0"
       inkscape:vp_z="32 : 16 : 1"
       inkscape:persp3d-origin="16 : 10.666667 : 1"
       id="perspective2391" />
  </defs>
  <sodipodi:namedview
     id="base"
     pagecolor="#ffffff"
     bordercolor="#666666"
     borderopacity="1.0"
     inkscape:pageopacity="0.0"
     inkscape:pageshadow="2"
     inkscape:zoom="11.313709"
     inkscape:cx="16.000788"
     inkscape:cy="16.000788"
     inkscape:current-layer="svg2383"
     showgrid="true"
     inkscape:grid-bbox="true"
     inkscape:document-units="px"
     inkscape:window-width="1280"
     inkscape:window-height="910"
     inkscape:window-x="0"
     inkscape:window-y="25" />
  <metadata
     id="metadata2388">
    <rdf:RDF>
      <cc:Work
         rdf:about="">
        <dc:format>image/svg+xml</dc:format>
        <dc:type
           rdf:resource="http://purl.org/dc/dcmitype/StillImage" />
      </cc:Work>
    </rdf:RDF>
  </metadata>
  <g
     id="layer1"
     inkscape:label="Layer 1"
     inkscape:groupmode="layer" />
  <path
     sodipodi:type="arc"
     style="opacity:1;fill:none;fill-opacity:1;fill-rule:nonzero;stroke:#000000;stroke-width:0.80599999;stroke-linecap:square;stroke-linejoin:miter;stroke-miterlimit:4;stroke-dasharray:none;stroke-dashoffset:2.75;stroke-opacity:1"
     id="path3218"
     sodipodi:cx="16"
     sodipodi:cy="16"
     sodipodi:rx="15"
     sodipodi:ry="15"
     d="M 31,16 A 15,15 0 1 1 1,16 A 15,15 0 1 1 31,16 z" />
  <path
     sodipodi:type="arc"
     style="opacity:1;fill:none;fill-opacity:1;fill-rule:nonzero;stroke:#000000;stroke-width:0.80599999;stroke-linecap:square;stroke-linejoin:miter;stroke-miterlimit:4;stroke-dasharray:none;stroke-dashoffset:2.75;stroke-opacity:1"
     id="path3221"
     sodipodi:cx="16"
     sodipodi:cy="16"
     sodipodi:rx="12"
     sodipodi:ry="12"
     d="M 28,16 A 12,12 0 1 1 4,16 A 12,12 0 1 1 28,16 z"
     transform="translate(6.25e-2,0.125)" />
  <path
     style="opacity:1;fill:#00ff00;fill-opacity:1;fill-rule:nonzero;stroke:#000000;stroke-width:0.050375;stroke-linecap:square;stroke-linejoin:miter;stroke-miterlimit:4;stroke-dasharray:none;stroke-dashoffset:2.75;stroke-opacity:1"
     d="M 14.913288,30.535702 C 11.865571,30.256221 9.1122221,29.152976 6.8169427,27.291562 C 6.076244,26.690876 4.9316646,25.505815 4.373189,24.761382 C 2.4525159,22.201176 1.4702871,19.273389 1.4587777,16.074212 C 1.4541065,14.775839 1.5215646,14.083042 1.7600159,12.980462 C 3.0037321,7.2296198 7.453409,2.853061 13.225788,1.7030941 C 15.232456,1.3033273 17.753198,1.3872829 19.725788,1.9195804 C 24.334895,3.1633341 28.033701,6.5423954 29.687551,11.020195 C 30.242913,12.523836 30.48067,13.84056 30.522032,15.641695 C 30.56802,17.643909 30.358801,19.021175 29.734695,20.824617 C 27.987938,25.872129 23.459826,29.605409 18.100788,30.416393 C 17.461486,30.513138 15.477176,30.587412 14.913288,30.535703 L 14.913288,30.535702 z M 17.882038,28.411305 C 20.586751,27.992235 22.934245,26.805514 24.851913,24.88784 C 26.82287,22.916894 27.993638,20.525285 28.386301,17.667962 C 28.50812,16.781502 28.479351,14.995091 28.329438,14.136712 C 28.044476,12.505109 27.449263,10.922136 26.602632,9.5442741 C 25.684563,8.0501523 24.165413,6.5424216 22.596245,5.568001 C 19.755807,3.8041516 16.247383,3.2607348 13.007622,4.0828266 C 8.6054946,5.1998685 5.0969434,8.7198798 4.014359,13.105462 C 3.4195771,15.514941 3.5593134,18.119159 4.4067309,20.417962 C 5.3637609,23.014113 7.2405346,25.294271 9.6068802,26.735806 C 11.251855,27.737895 13.252865,28.375222 15.257038,28.535397 C 15.804346,28.579139 17.235468,28.511484 17.882038,28.411304 L 17.882038,28.411305 z"
     id="path3223"
     inkscape:export-xdpi="90"
     inkscape:export-ydpi="90"
     inkscape:export-filename="/home/luis/NetBeansProjects/Sabre/Trunk/Game Plugin 2D/src/org/gcreator/events/images/create.png" />
  <path
     style="opacity:1;fill:#ff0000;fill-opacity:1;fill-rule:nonzero;stroke:#000000;stroke-width:0.050375;stroke-linecap:square;stroke-linejoin:miter;stroke-miterlimit:4;stroke-dasharray:none;stroke-dashoffset:2.75;stroke-opacity:1"
     d="M 14.475788,30.440712 C 10.970331,29.961193 8.0961427,28.584661 5.8195384,26.294981 C 4.603354,25.071814 3.8622071,24.071201 3.1094434,22.636123 C 2.3217515,21.13446 1.8106534,19.447809 1.6039627,17.667962 C 1.5056121,16.821045 1.5222665,14.716745 1.6331477,13.980462 C 2.2427477,9.9325485 4.4185215,6.4029554 7.7257884,4.0968279 C 9.6721934,2.7396179 11.897543,1.8916535 14.275445,1.6010973 C 15.291036,1.4770016 17.188298,1.5074066 18.194538,1.6639023 C 20.702938,2.0540204 23.030476,3.071801 25.014663,4.6461854 C 27.859351,6.9033479 29.807545,10.248519 30.323476,13.761712 C 30.45262,14.641091 30.504451,16.660562 30.419726,17.511712 C 30.177913,19.940991 29.19172,22.528969 27.76432,24.480063 C 25.533457,27.529393 22.222101,29.611958 18.526873,30.289642 C 17.484698,30.480771 15.35046,30.56036 14.475788,30.440712 L 14.475788,30.440712 z M 18.257038,28.387963 C 20.998907,27.845517 23.091751,26.725904 24.987682,24.787253 C 26.59152,23.147289 27.61782,21.306073 28.154751,19.105462 C 28.40157,18.093875 28.480051,17.404996 28.484638,16.209899 C 28.489657,14.902634 28.461038,14.553352 28.278926,13.699212 C 27.741495,11.178577 26.623307,9.0885173 24.884657,7.3547998 C 23.075707,5.5509791 21.057263,4.4661198 18.470312,3.9072516 C 17.74247,3.7500135 17.59221,3.7394179 16.038288,3.7357604 C 14.464879,3.7320566 14.342963,3.7403123 13.600788,3.9008148 C 10.762575,4.5146054 8.3169059,5.9778335 6.503919,8.1468254 C 2.4068365,13.048428 2.698369,20.307885 7.1739196,24.830457 C 9.1468652,26.824132 11.4836,28.01441 14.343244,28.482347 C 15.171996,28.61796 17.361365,28.56516 18.257038,28.387962 L 18.257038,28.387963 z"
     id="path3233" />
  <path
     style="fill:#ff0000;fill-rule:evenodd;stroke:#000000;stroke-width:1px;stroke-linecap:butt;stroke-linejoin:miter;stroke-opacity:1"
     d="M 5.8336309,17.857864 L 26.693281,17.857864 L 26.604893,15.029437 L 5.8336309,15.029437 L 5.8336309,17.857864 z"
     id="path3247" />
</svg>
