<?xml version="1.0" encoding="UTF-8" standalone="no"?>
<!-- Created with Inkscape (http://www.inkscape.org/) -->
<svg
   xmlns:dc="http://purl.org/dc/elements/1.1/"
   xmlns:cc="http://creativecommons.org/ns#"
   xmlns:rdf="http://www.w3.org/1999/02/22-rdf-syntax-ns#"
   xmlns:svg="http://www.w3.org/2000/svg"
   xmlns="http://www.w3.org/2000/svg"
   xmlns:sodipodi="http://sodipodi.sourceforge.net/DTD/sodipodi-0.dtd"
   xmlns:inkscape="http://www.inkscape.org/namespaces/inkscape"
   width="32px"
   height="32px"
   id="svg2383"
   sodipodi:version="0.32"
   inkscape:version="0.46"
   sodipodi:docname="update.svg"
   inkscape:output_extension="org.inkscape.output.svg.inkscape"
   inkscape:export-filename="/home/luis/NetBeansProjects/Sabre/Trunk/Game Plugin 2D/src/org/gcreator/events/images/update.png"
   inkscape:export-xdpi="90"
   inkscape:export-ydpi="90">
  <defs
     id="defs2385">
    <inkscape:perspective
       sodipodi:type="inkscape:persp3d"
       inkscape:vp_x="0 : 16 : 1"
       inkscape:vp_y="0 : 1000 : 0"
       inkscape:vp_z="32 : 16 : 1"
       inkscape:persp3d-origin="16 : 10.666667 : 1"
       id="perspective2391" />
  </defs>
  <sodipodi:namedview
     id="base"
     pagecolor="#ffffff"
     bordercolor="#666666"
     borderopacity="1.0"
     inkscape:pageopacity="0.0"
     inkscape:pageshadow="2"
     inkscape:zoom="16"
     inkscape:cx="16.000788"
     inkscape:cy="16.000788"
     inkscape:current-layer="svg2383"
     showgrid="true"
     inkscape:grid-bbox="true"
     inkscape:document-units="px"
     inkscape:window-width="1280"
     inkscape:window-height="910"
     inkscape:window-x="0"
     inkscape:window-y="25" />
  <metadata
     id="metadata2388">
    <rdf:RDF>
      <cc:Work
         rdf:about="">
        <dc:format>image/svg+xml</dc:format>
        <dc:type
           rdf:resource="http://purl.org/dc/dcmitype/StillImage" />
      </cc:Work>
    </rdf:RDF>
  </metadata>
  <g
     id="layer1"
     inkscape:label="Layer 1"
     inkscape:groupmode="layer" />
  <path
     sodipodi:type="arc"
     style="opacity:1;fill:none;fill-opacity:1;fill-rule:nonzero;stroke:#000000;stroke-width:0.80599999;stroke-linecap:square;stroke-linejoin:miter;stroke-miterlimit:4;stroke-dasharray:none;stroke-dashoffset:2.75;stroke-opacity:1"
     id="path3218"
     sodipodi:cx="16"
     sodipodi:cy="16"
     sodipodi:rx="15"
     sodipodi:ry="15"
     d="M 31,16 A 15,15 0 1 1 1,16 A 15,15 0 1 1 31,16 z" />
  <path
     sodipodi:type="arc"
     style="opacity:1;fill:none;fill-opacity:1;fill-rule:nonzero;stroke:#000000;stroke-width:0.80599999;stroke-linecap:square;stroke-linejoin:miter;stroke-miterlimit:4;stroke-dasharray:none;stroke-dashoffset:2.75;stroke-opacity:1"
     id="path3221"
     sodipodi:cx="16"
     sodipodi:cy="16"
     sodipodi:rx="12"
     sodipodi:ry="12"
     d="M 28,16 A 12,12 0 1 1 4,16 A 12,12 0 1 1 28,16 z"
     transform="translate(6.25e-2,0.125)" />
  <path
     style="opacity:1;fill:#00ffff;fill-opacity:1;fill-rule:nonzero;stroke:#000000;stroke-width:0.050375;stroke-linecap:square;stroke-linejoin:miter;stroke-miterlimit:4;stroke-dasharray:none;stroke-dashoffset:2.75;stroke-opacity:1"
     d="M 14.913288,30.535703 C 11.86557,30.256221 9.1122217,29.152976 6.8169424,27.291563 C 6.0762436,26.690876 4.9316642,25.505815 4.3731886,24.761383 C 2.4525155,22.201176 1.4702867,19.273389 1.4587774,16.074212 C 1.4541061,14.77584 1.5215642,14.083042 1.7600155,12.980462 C 3.0037317,7.2296201 7.4534086,2.8530614 13.225788,1.7030945 C 15.232455,1.3033276 17.753198,1.3872832 19.725788,1.9195807 C 24.334894,3.1633345 28.033701,6.5423957 29.68755,11.020196 C 30.242913,12.523836 30.480669,13.840561 30.522032,15.641695 C 30.568019,17.643909 30.3588,19.021175 29.734694,20.824617 C 27.987938,25.872129 23.459825,29.605409 18.100788,30.416393 C 17.461486,30.513138 15.477175,30.587413 14.913288,30.535703 L 14.913288,30.535703 z M 17.882038,28.411305 C 20.58675,27.992235 22.934244,26.805514 24.851913,24.88784 C 26.822869,22.916894 27.993638,20.525285 28.3863,17.667962 C 28.508119,16.781502 28.47935,14.995091 28.329438,14.136712 C 28.044475,12.505109 27.449263,10.922136 26.602632,9.5442745 C 25.684563,8.0501526 24.165413,6.542422 22.596244,5.5680014 C 19.755807,3.804152 16.247382,3.2607351 13.007622,4.082827 C 8.6054942,5.1998689 5.096943,8.7198801 4.0143586,13.105462 C 3.4195767,15.514941 3.559313,18.119159 4.4067305,20.417962 C 5.3637605,23.014113 7.2405342,25.294271 9.6068799,26.735806 C 11.251855,27.737895 13.252864,28.375223 15.257038,28.535398 C 15.804346,28.579139 17.235467,28.511484 17.882038,28.411305 L 17.882038,28.411305 z"
     id="path2395" />
  <path
     style="fill:none;fill-rule:evenodd;stroke:#000000;stroke-width:1px;stroke-linecap:butt;stroke-linejoin:miter;stroke-opacity:1"
     d="M 5.75,15.25 L 22.375,15.25 L 22.375,12.75 L 26.5625,16.3125 L 22.5625,19 L 22.5625,16.9375 L 5.8125,16.9375 L 5.75,15.25 z"
     id="path2419" />
  <path
     style="opacity:1;fill:#00ffff;fill-opacity:1;fill-rule:nonzero;stroke:#000000;stroke-width:0.050375;stroke-linecap:square;stroke-linejoin:miter;stroke-miterlimit:4;stroke-dasharray:none;stroke-dashoffset:2.75;stroke-opacity:1"
     d="M 23.100788,17.173398 L 23.100788,16.387166 L 14.710163,16.371312 L 6.319538,16.355462 L 6.3004874,16.058587 L 6.2814405,15.761712 L 14.595692,15.761712 L 22.909944,15.761712 L 22.927244,14.84673 L 22.944538,13.931748 L 24.288288,15.072827 C 25.02735,15.700421 25.638363,16.231694 25.646101,16.253434 C 25.658438,16.288116 23.299375,17.884871 23.156132,17.938795 C 23.125694,17.950255 23.100788,17.605825 23.100788,17.173397 L 23.100788,17.173398 z"
     id="path2421" />
</svg>
